# xmcd
#
# Track frame offsets:
#	150
#	21567
#	36561
#	52952
#	71311
#	87557
#	107801
#	124789
#	139949
#	157613
#	184753
#
# Disc length: 3943 seconds
#
# Revision: 1
# Processed by: cddbd v1.5.1PL0 Copyright (c) Steve Scherf et al.
# Submitted via: audiograbber 1.81.03
#
DISCID=960f650b
DTITLE=Тяни-Толкай - 3000 шагов
DYEAR=2005
DGENRE=Ballad
TTITLE0=3000 шагов
TTITLE1=Океан тайги (дуэт с А. Хлестовым)
TTITLE2=Снег
TTITLE3=Даль-чужбинушка
TTITLE4=Ледяное солнце
TTITLE5=Небо ищет
TTITLE6=Я добьюсь
TTITLE7=Метель
TTITLE8=3000 шагов (remix)
TTITLE9=Даль-чужбинушка (remix)
TTITLE10=Video
EXTD=
EXTT0=
EXTT1=
EXTT2=
EXTT3=
EXTT4=
EXTT5=
EXTT6=
EXTT7=
EXTT8=
EXTT9=
EXTT10=Видео-клипы:\n1. 3000 шагов\n2. Даль-чужбинушка
PLAYORDER=
